<?xml version="1.0" standalone="no"?><!DOCTYPE svg PUBLIC "-//W3C//DTD SVG 1.1//EN" "http://www.w3.org/Graphics/SVG/1.1/DTD/svg11.dtd"><svg class="icon" width="200px" height="200.00px" viewBox="0 0 1024 1024" version="1.1" xmlns="http://www.w3.org/2000/svg"><path d="M782.904889 93.383111a28.444444 28.444444 0 1 1 55.523555 12.344889c-10.979556 49.408-33.863111 86.599111-68.878222 109.937778a28.444444 28.444444 0 1 1-31.544889-47.331556c21.873778-14.592 36.906667-39.025778 44.899556-74.951111z" fill="#191919" /><path d="M597.333333 113.777778c183.751111 0 333.582222 145.180444 341.048889 327.111111H938.666667c0 2.588444-0.028444 5.176889-0.071111 7.765333l0.028444 0.810667L938.666667 455.111111c0 47.189333-9.571556 92.145778-26.88 133.020445C840.490667 775.210667 632.035556 910.222222 341.333333 910.222222l1.848889-0.028444L341.333333 910.222222c-96.711111 0-175.402667-77.226667-177.720889-173.397333L163.555556 732.444444c0-39.566222 12.928-76.117333 34.787555-105.656888L199.111111 625.777778l1.948445-2.602667 3.84-5.176889C234.055111 578.417778 256 540.487111 256 440.888889h0.284444C263.751111 258.944 413.582222 113.777778 597.333333 113.777778z" fill="#F9AC00" /><path d="M263.936 796.330667a176.967111 176.967111 0 0 1-64.696889-14.620445c-0.099556-100.408889 15.715556-129.877333 32.597333-156.074666l4.337778-6.670223 2.161778-3.356444c3.598222-5.632 7.168-11.505778 10.552889-18.275556 17.678222-35.356444 30.478222-80.497778 34.346667-127.288889 0.739556-18.204444 1.208889-33.109333 1.208888-43.377777 0-56.888889 71.111111-284.444444 312.888889-284.444445s270.222222 184.888889 270.222223 184.888889c0 259.2-234.666667 469.333333-597.333334 469.333333z" fill="#FCD200" /><path d="M597.333333 113.777778c183.751111 0 333.582222 145.180444 341.048889 327.111111H938.666667l-0.042667 8.576L938.666667 455.111111c0 47.189333-9.571556 92.145778-26.88 133.020445C841.201778 773.333333 636.188444 907.52 350.008889 910.179556L341.333333 910.222222c-96.711111 0-175.402667-77.226667-177.720889-173.397333L163.555556 732.444444c0-39.566222 12.928-76.117333 34.787555-105.656888l6.556445-8.789334C234.055111 578.417778 256 540.487111 256 440.888889h0.284444C263.751111 258.944 413.582222 113.777778 597.333333 113.777778z m0 56.888889c-152.675556 0-277.973333 120.547556-284.202666 272.540444l-0.327111 7.893333-0.028445 3.555556a615.822222 615.822222 0 0 1-0.896 24.234667l-0.568889 8.618666-0.327111 8.163556-0.369778 0.014222-0.241777 2.688c-6.058667 61.752889-23.509333 103.224889-56.647112 149.205333l-3.143111 4.337778-6.513777 8.718222a119.566222 119.566222 0 0 0-23.623112 71.111112l0.042667 3.697777c1.578667 65.479111 55.196444 117.902222 120.163556 117.902223l8.846222-0.056889c253.767111-2.360889 444.515556-115.854222 509.112889-285.411556l0.782222-1.934222A282.780444 282.780444 0 0 0 881.777778 455.580444l-0.056889-7.964444-0.184889-4.408889C875.306667 291.214222 750.008889 170.666667 597.333333 170.666667z" fill="#191919" /><path d="M545.877333 249.941333a14.222222 14.222222 0 0 0 12.771556 25.415111c9.827556-4.949333 19.712-9.784889 29.653333-14.506666a14.222222 14.222222 0 0 0-12.231111-25.685334c-10.126222 4.807111-20.195556 9.742222-30.193778 14.776889z m-52.081777 27.448889a226.816 226.816 0 0 0-117.290667 202.951111 14.222222 14.222222 0 0 0 28.444444-0.512 198.371556 198.371556 0 0 1 102.584889-177.536 14.222222 14.222222 0 0 0-13.738666-24.917333z" fill="#FFFFFF" /></svg>