<?xml version="1.0" standalone="no"?><!DOCTYPE svg PUBLIC "-//W3C//DTD SVG 1.1//EN" "http://www.w3.org/Graphics/SVG/1.1/DTD/svg11.dtd"><svg class="icon" width="200px" height="200.00px" viewBox="0 0 1024 1024" version="1.1" xmlns="http://www.w3.org/2000/svg"><path d="M425.955556 172.060444C454.641778 161.649778 483.313778 156.444444 512 156.444444c28.686222 0 57.358222 5.205333 86.044444 15.616A85.361778 85.361778 0 0 1 654.222222 252.231111V270.222222a82.488889 82.488889 0 0 1-74.695111 82.133334 713.912889 713.912889 0 0 1-135.054222 0A82.488889 82.488889 0 0 1 369.777778 270.222222v-17.991111a85.361778 85.361778 0 0 1 56.177778-80.170667z" fill="#5DA723" /><path d="M512 128c-32.042667 0-64 5.802667-95.744 17.322667A113.820444 113.820444 0 0 0 341.333333 252.216889V270.222222a110.933333 110.933333 0 0 0 100.451556 110.449778 742.357333 742.357333 0 0 0 140.430222 0A110.933333 110.933333 0 0 0 682.666667 270.222222v-17.991111a113.806222 113.806222 0 0 0-74.894223-106.894222C576 133.802667 544.056889 128 512 128z m0 56.888889c25.315556 0 50.716444 4.608 76.330667 13.909333A56.917333 56.917333 0 0 1 625.777778 252.245333V270.222222a54.044444 54.044444 0 0 1-48.938667 53.816889 685.468444 685.468444 0 0 1-129.678222 0A54.044444 54.044444 0 0 1 398.222222 270.222222v-17.991111a56.917333 56.917333 0 0 1 37.461334-53.447111C461.283556 189.496889 486.684444 184.888889 512 184.888889z" fill="#191919" /><path d="M128 561.777778a384 348.444444 0 1 0 768 0 384 348.444444 0 1 0-768 0Z" fill="#982589" /><path d="M369.777778 824.888889c212.081778 0 384-156.003556 384-348.444445 0-63.004444-18.417778-122.083556-50.631111-173.070222C642.062222 304.981333 549.916444 298.666667 426.666667 284.444444 246.513778 322.104889 156.444444 407.438222 156.444444 540.444444c0 99.555556 42.666667 206.222222 140.529778 278.186667 18.631111 13.710222 47.914667 6.257778 72.803556 6.257778z" fill="#AC439E" /><path d="M512 213.333333c212.081778 0 384 156.003556 384 348.444445S724.081778 910.222222 512 910.222222 128 754.218667 128 561.777778 299.918222 213.333333 512 213.333333z m0 56.888889c-181.831111 0-327.111111 131.84-327.111111 291.555556S330.168889 853.333333 512 853.333333s327.111111-131.84 327.111111-291.555555S693.831111 270.222222 512 270.222222z" fill="#191919" /><path d="M341.333333 384c62.833778 0 113.777778 1.777778 113.777778-59.932444 0-61.724444-65.166222-103.623111-128-103.623112s-99.555556 41.898667-99.555555 103.623112S278.499556 384 341.333333 384z" fill="#5DA723" /><path d="M327.111111 192c-77.724444 0-128 53.688889-128 132.067556 0 37.902222 15.928889 64.398222 46.08 77.482666 20.337778 8.846222 41.201778 10.837333 82.602667 10.894222h27.050666l10.353778-0.056888c34.702222-0.398222 53.703111-2.759111 72.291556-10.837334 30.151111-13.084444 46.065778-39.580444 46.065778-77.482666 0-75.875556-74.595556-132.067556-156.444445-132.067556z m0 56.888889c53.361778 0 99.555556 34.801778 99.555556 75.178667l-0.071111 3.512888c-0.995556 23.722667-13.226667 27.889778-71.793778 27.975112H327.822222c-61.297778-0.085333-71.822222-4.650667-71.822222-31.488 0-47.758222 25.671111-75.178667 71.111111-75.178667z" fill="#191919" /><path d="M682.666667 384c-62.833778 0-113.777778 1.777778-113.777778-59.932444 0-61.724444 65.166222-103.623111 128-103.623112s99.555556 41.898667 99.555555 103.623112S745.500444 384 682.666667 384z" fill="#5DA723" /><path d="M696.888889 192c77.724444 0 128 53.688889 128 132.067556 0 37.902222-15.928889 64.398222-46.08 77.482666-20.337778 8.846222-41.201778 10.837333-82.602667 10.894222H669.155556l-10.353778-0.056888c-34.702222-0.398222-53.703111-2.759111-72.291556-10.837334-30.151111-13.084444-46.065778-39.580444-46.065778-77.482666 0-75.875556 74.595556-132.067556 156.444445-132.067556z m0 56.888889c-53.361778 0-99.555556 34.801778-99.555556 75.178667l0.071111 3.512888c0.995556 23.722667 13.226667 27.889778 71.793778 27.975112h26.979556c61.297778-0.085333 71.822222-4.650667 71.822222-31.488 0-47.758222-25.671111-75.178667-71.111111-75.178667z" fill="#191919" /><path d="M469.333333 99.555556h85.333334v184.888888h-85.333334z" fill="#5DA723" /><path d="M554.666667 71.111111h-85.333334a28.444444 28.444444 0 0 0-28.444444 28.444445v184.888888a28.444444 28.444444 0 0 0 28.444444 28.444445h85.333334a28.444444 28.444444 0 0 0 28.444444-28.444445V99.555556a28.444444 28.444444 0 0 0-28.444444-28.444445z m-28.444445 56.888889v128h-28.444444V128h28.444444z" fill="#191919" /><path d="M425.955556 271.616C454.641778 261.205333 483.313778 256 512 256c28.686222 0 57.358222 5.205333 86.044444 15.616A85.361778 85.361778 0 0 1 654.222222 351.786667V369.777778a82.488889 82.488889 0 0 1-74.695111 82.133333 713.912889 713.912889 0 0 1-135.054222 0A82.488889 82.488889 0 0 1 369.777778 369.777778v-17.991111a85.361778 85.361778 0 0 1 56.177778-80.170667z" fill="#5DA723" /><path d="M512 227.555556c-32.042667 0-64 5.802667-95.744 17.322666A113.820444 113.820444 0 0 0 341.333333 351.772444V369.777778a110.933333 110.933333 0 0 0 100.451556 110.449778 742.357333 742.357333 0 0 0 140.430222 0A110.933333 110.933333 0 0 0 682.666667 369.777778v-17.991111a113.806222 113.806222 0 0 0-74.894223-106.894223C576 233.358222 544.056889 227.555556 512 227.555556z m0 56.888888c25.315556 0 50.716444 4.608 76.330667 13.909334A56.917333 56.917333 0 0 1 625.777778 351.800889V369.777778a54.044444 54.044444 0 0 1-48.938667 53.816889 685.468444 685.468444 0 0 1-129.678222 0A54.044444 54.044444 0 0 1 398.222222 369.777778v-17.991111a56.917333 56.917333 0 0 1 37.461334-53.447111C461.283556 289.052444 486.684444 284.444444 512 284.444444z" fill="#191919" /><path d="M276.906667 547.555556a14.222222 14.222222 0 0 1 14.222222 14.222222c0 40.661333 13.539556 79.502222 38.513778 112.355555a14.222222 14.222222 0 1 1-22.641778 17.208889c-28.686222-37.731556-44.330667-82.574222-44.330667-129.564444a14.222222 14.222222 0 0 1 14.222222-14.222222z m3.342222-69.859556a14.222222 14.222222 0 0 1 26.069333 11.363556 183.438222 183.438222 0 0 0-9.443555 27.377777 14.222222 14.222222 0 0 1-27.548445-7.111111c2.801778-10.808889 6.442667-21.376 10.922667-31.630222z" fill="#FFFFFF" /></svg>