<?xml version="1.0" standalone="no"?><!DOCTYPE svg PUBLIC "-//W3C//DTD SVG 1.1//EN" "http://www.w3.org/Graphics/SVG/1.1/DTD/svg11.dtd"><svg class="icon" width="200px" height="200.00px" viewBox="0 0 1024 1024" version="1.1" xmlns="http://www.w3.org/2000/svg"><path d="M532.792889 289.464889c8.448-31.516444-40.064-71.893333-108.344889-90.183111-45.525333-12.202667-91.832889-4.224-138.936889 23.936 26.709333 47.928889 62.833778 77.994667 108.344889 90.183111 68.295111 18.304 130.488889 7.580444 138.936889-23.936z" fill="#81B532" /><path d="M260.664889 237.056c30.307556 54.385778 72.533333 89.543111 125.838222 103.822222 81.664 21.888 159.701333 8.448 173.767111-44.046222 14.065778-52.48-46.791111-103.139556-128.469333-125.027556-53.290667-14.279111-107.448889-4.949333-160.881778 26.993778a28.444444 28.444444 0 0 0-10.254222 38.257778z m65.848889-2.858667l1.464889-0.611555c30.592-12.487111 60.060444-14.620444 89.102222-6.826667 29.44 7.879111 55.281778 20.508444 72.106667 34.517333 12.586667 10.481778 16.753778 18.488889 16.128 20.835556-0.625778 2.346667-8.248889 7.196444-24.376889 9.969778-21.589333 3.726222-50.261333 1.735111-79.715556-6.158222-29.041778-7.779556-53.489778-24.348444-73.756444-50.460445l-0.967111-1.28z" fill="#191919" /><path d="M464.099556 399.075556c-32.156444-7.736889-57.045333-44.472889-74.666667-110.222223-17.621333-65.763556-35.399111-123.832889-53.333333-174.222222 117.333333 4.878222 188.586667 54.257778 213.731555 148.138667 25.159111 93.866667-3.413333 139.306667-85.731555 136.291555z" fill="#81B532" /><path d="M337.28 86.200889c129.052444 5.376 211.427556 62.478222 240.028444 169.201778 29.738667 110.990222-11.064889 175.857778-114.247111 172.088889a28.444444 28.444444 0 0 1-5.603555-0.768c-43.918222-10.552889-73.927111-53.489778-93.980445-124.970667l-1.521777-5.546667c-17.422222-65.066667-34.986667-122.410667-52.650667-172.046222a28.444444 28.444444 0 0 1 27.975111-37.959111z m46.08 62.037333l-6.087111-1.052444 0.142222 0.455111c11.946667 36.451556 23.808 76.231111 35.569778 119.338667l5.319111 19.584c14.037333 50.005333 31.431111 76.871111 48.938667 83.740444l1.223111 0.426667 2.986666 0.042666c56.234667 0.227556 70.755556-26.581333 50.915556-100.650666-18.147556-67.697778-63.104-107.918222-139.008-121.884445z" fill="#191919" /><path d="M491.264 289.464889c-8.433778-31.516444 40.064-71.893333 108.359111-90.183111 45.511111-12.202667 91.832889-4.224 138.922667 23.936-26.709333 47.928889-62.819556 77.994667-108.344889 90.183111-68.280889 18.304-130.488889 7.580444-138.936889-23.936z" fill="#81B532" /><path d="M763.392 237.056c-30.307556 54.385778-72.533333 89.543111-125.838222 103.822222-81.664 21.888-159.701333 8.448-173.767111-44.046222-14.051556-52.48 46.791111-103.139556 128.469333-125.027556 53.290667-14.279111 107.448889-4.949333 160.881778 26.993778a28.444444 28.444444 0 0 1 10.254222 38.257778z m-65.848889-2.858667l-1.464889-0.611555c-30.592-12.487111-60.060444-14.620444-89.102222-6.826667-29.44 7.879111-55.281778 20.508444-72.106667 34.517333-12.586667 10.481778-16.753778 18.488889-16.128 20.835556 0.625778 2.346667 8.248889 7.196444 24.376889 9.969778 21.589333 3.726222 50.261333 1.735111 79.715556-6.158222 29.041778-7.779556 53.489778-24.348444 73.756444-50.460445l0.967111-1.28z" fill="#191919" /><path d="M559.957333 399.075556c32.156444-7.736889 57.045333-44.472889 74.666667-110.222223 17.621333-65.763556 35.399111-123.832889 53.333333-174.222222-117.333333 4.878222-188.586667 54.257778-213.731555 148.138667-25.159111 93.866667 3.413333 139.306667 85.731555 136.291555z" fill="#81B532" /><path d="M686.776889 86.200889c-129.052444 5.376-211.427556 62.478222-240.028445 169.201778-29.724444 110.990222 11.064889 175.857778 114.247112 172.088889a28.444444 28.444444 0 0 0 5.603555-0.768c43.918222-10.552889 73.927111-53.489778 93.980445-124.970667l1.521777-5.546667c17.436444-65.066667 34.986667-122.410667 52.650667-172.046222A28.444444 28.444444 0 0 0 686.791111 86.186667z m-46.08 62.037333l6.087111-1.052444-0.142222 0.455111c-11.946667 36.451556-23.808 76.231111-35.569778 119.338667l-5.319111 19.584c-14.037333 50.005333-31.431111 76.871111-48.924445 83.740444l-1.237333 0.426667-2.986667 0.042666c-56.220444 0.227556-70.755556-26.581333-50.915555-100.650666 18.147556-67.697778 63.104-107.918222 139.008-121.884445z" fill="#191919" /><path d="M512 455.111111c47.132444 0 85.333333-82.773333 85.333333-184.888889 0-68.067556-28.444444-129.706667-85.333333-184.888889-56.888889 55.182222-85.333333 116.821333-85.333333 184.888889 0 102.115556 38.200889 184.888889 85.333333 184.888889z" fill="#81B532" /><path d="M492.188444 64.910222C429.994667 125.255111 398.222222 194.104889 398.222222 270.222222c0 115.968 44.942222 213.333333 113.777778 213.333334s113.777778-97.365333 113.777778-213.333334c0-76.117333-31.772444-144.967111-93.966222-205.312a28.444444 28.444444 0 0 0-39.623112 0zM512 126.691556l2.446222 2.844444C551.011556 172.928 568.888889 219.562667 568.888889 270.222222c0 88.248889-31.473778 156.444444-56.888889 156.444445s-56.888889-68.195556-56.888889-156.444445c0-50.645333 17.877333-97.294222 54.442667-140.686222l2.446222-2.844444z" fill="#191919" /><path d="M213.333333 284.444444m227.555556 0l142.222222 0q227.555556 0 227.555556 227.555556l0 170.666667q0 227.555556-227.555556 227.555555l-142.222222 0q-227.555556 0-227.555556-227.555555l0-170.666667q0-227.555556 227.555556-227.555556Z" fill="#FE8D00" /><path d="M341.333333 312.888889h398.222223v341.333333c0 94.250667-76.416 170.666667-170.666667 170.666667H369.777778C291.228444 824.888889 227.555556 761.216 227.555556 682.666667V426.666667a113.777778 113.777778 0 0 1 113.777777-113.777778z" fill="#FEBE00" /><path d="M583.111111 256H440.888889c-141.383111 0-256 114.616889-256 256v170.666667c0 141.383111 114.616889 256 256 256h142.222222c141.383111 0 256-114.616889 256-256V512c0-141.383111-114.616889-256-256-256z m0 56.888889c109.966222 0 199.111111 89.144889 199.111111 199.111111v170.666667c0 109.966222-89.144889 199.111111-199.111111 199.111111H440.888889c-109.966222 0-199.111111-89.144889-199.111111-199.111111V512c0-109.966222 89.144889-199.111111 199.111111-199.111111h142.222222z" fill="#191919" /><path d="M345.500444 544.611556a14.222222 14.222222 0 0 1 20.110223 0l42.88 42.88a14.222222 14.222222 0 0 1-20.110223 20.110222l-32.839111-32.824889-32.824889 32.839111a14.222222 14.222222 0 0 1-18.773333 1.180444l-1.336889-1.180444a14.222222 14.222222 0 0 1 0-20.110222l42.894222-42.894222z m156.444445 0a14.222222 14.222222 0 0 1 20.110222 0l42.965333 42.965333a14.222222 14.222222 0 0 1-20.110222 20.110222L512 574.776889l-33.038222 33.052444a14.222222 14.222222 0 0 1-18.773334 1.194667l-1.336888-1.194667a14.222222 14.222222 0 0 1 0-20.110222l43.093333-43.107555z m156.444444 0a14.222222 14.222222 0 0 1 20.110223 0l42.965333 42.965333a14.222222 14.222222 0 0 1-20.110222 20.110222L668.444444 574.776889l-33.038222 33.052444a14.222222 14.222222 0 0 1-18.773333 1.194667l-1.336889-1.194667a14.222222 14.222222 0 0 1 0-20.110222l43.093333-43.107555zM416.611556 701.056a14.222222 14.222222 0 0 1 20.110222 0l42.88 42.88a14.222222 14.222222 0 0 1-20.110222 20.110222l-32.839112-32.824889-32.824888 32.839111a14.222222 14.222222 0 0 1-18.773334 1.180445l-1.336889-1.180445a14.222222 14.222222 0 0 1 0-20.110222l42.894223-42.894222z m170.666666 0a14.222222 14.222222 0 0 1 20.110222 0l42.965334 42.965333a14.222222 14.222222 0 0 1-20.110222 20.110223L597.333333 731.221333l-33.038222 33.052445a14.222222 14.222222 0 0 1-18.773333 1.194666l-1.336889-1.194666a14.222222 14.222222 0 0 1 0-20.110222l43.093333-43.107556zM416.611556 388.167111a14.222222 14.222222 0 0 1 20.110222 0l42.88 42.88a14.222222 14.222222 0 0 1-20.110222 20.110222l-32.839112-32.824889-32.824888 32.839112a14.222222 14.222222 0 0 1-18.773334 1.180444l-1.336889-1.180444a14.222222 14.222222 0 0 1 0-20.110223l42.894223-42.894222z m170.666666 0a14.222222 14.222222 0 0 1 20.110222 0l42.965334 42.965333a14.222222 14.222222 0 0 1-20.110222 20.110223L597.333333 418.332444l-33.038222 33.052445a14.222222 14.222222 0 0 1-18.773333 1.194667l-1.336889-1.194667a14.222222 14.222222 0 0 1 0-20.110222l43.093333-43.107556z" fill="#FE8D00" /></svg>