<?xml version="1.0" standalone="no"?><!DOCTYPE svg PUBLIC "-//W3C//DTD SVG 1.1//EN" "http://www.w3.org/Graphics/SVG/1.1/DTD/svg11.dtd"><svg class="icon" width="200px" height="200.00px" viewBox="0 0 1024 1024" version="1.1" xmlns="http://www.w3.org/2000/svg"><path d="M469.333333 369.777778m-270.222222 0a270.222222 270.222222 0 1 0 540.444445 0 270.222222 270.222222 0 1 0-540.444445 0Z" fill="#6087F0" /><path d="M469.333333 99.555556c149.233778 0 270.222222 120.988444 270.222223 270.222222s-120.988444 270.222222-270.222223 270.222222S199.111111 519.011556 199.111111 369.777778 320.099556 99.555556 469.333333 99.555556z m0 56.888888C351.516444 156.444444 256 251.960889 256 369.777778c0 117.816889 95.516444 213.333333 213.333333 213.333333 117.816889 0 213.333333-95.516444 213.333334-213.333333 0-117.816889-95.516444-213.333333-213.333334-213.333334z" fill="#191919" /><path d="M416.199111 385.137778A56.32 56.32 0 0 0 448.384 440.888889a56.32 56.32 0 0 0-32.199111 55.751111 56.32 56.32 0 0 0-64.384 0A56.32 56.32 0 0 0 319.616 440.888889a56.32 56.32 0 0 0 32.199111-55.751111 56.32 56.32 0 0 0 64.384 0z" fill="#D8D8D8" /><path d="M384 440.888889m-14.222222 0a14.222222 14.222222 0 1 0 28.444444 0 14.222222 14.222222 0 1 0-28.444444 0Z" fill="#191919" /><path d="M668.444444 554.666667m-213.333333 0a213.333333 213.333333 0 1 0 426.666667 0 213.333333 213.333333 0 1 0-426.666667 0Z" fill="#4571E7" /><path d="M590.222222 725.333333C735.530667 725.333333 853.333333 607.530667 853.333333 462.222222a263.111111 263.111111 0 0 0-11.178666-76.131555C746.666667 298.666667 618.666667 277.333333 483.555556 398.222222c66.375111 33.180444 109.041778 80.597333 128 142.222222 18.958222 80.597333 11.847111 142.222222-21.333334 184.888889z" fill="#6087F0" /><path d="M642.616166 376.532611m24.633612 14.222222l0 0q24.633611 14.222222 10.411389 38.855834l0 0q-14.222222 24.633611-38.855834 10.411389l0 0q-24.633611-14.222222-10.411389-38.855834l0 0q14.222222-24.633611 38.855834-10.411389Z" fill="#FFFFFF" opacity=".499" /><path d="M668.444444 284.444444C519.210667 284.444444 398.222222 405.432889 398.222222 554.666667s120.988444 270.222222 270.222222 270.222222 270.222222-120.988444 270.222223-270.222222S817.678222 284.444444 668.444444 284.444444z m0 56.888889c117.816889 0 213.333333 95.516444 213.333334 213.333334 0 117.816889-95.516444 213.333333-213.333334 213.333333-117.816889 0-213.333333-95.516444-213.333333-213.333333 0-117.816889 95.516444-213.333333 213.333333-213.333334z" fill="#191919" /><path d="M728.888889 708.024889a13.610667 13.610667 0 0 1-21.575111-12.458667 42.168889 42.168889 0 0 0-24.888889-43.107555 13.610667 13.610667 0 0 1 0-24.917334 42.168889 42.168889 0 0 0 24.888889-43.093333 13.610667 13.610667 0 0 1 21.575111-12.472889 42.168889 42.168889 0 0 0 49.777778 0 13.610667 13.610667 0 0 1 21.575111 12.458667 42.168889 42.168889 0 0 0 24.888889 43.107555 13.610667 13.610667 0 0 1 0 24.917334 42.168889 42.168889 0 0 0-24.888889 43.093333 13.610667 13.610667 0 0 1-21.575111 12.472889 42.168889 42.168889 0 0 0-49.777778 0z" fill="#3151B7" /><path d="M797.696 574.933333c1.991111 2.744889 2.901333 6.129778 2.545778 9.500445a42.168889 42.168889 0 0 0 24.888889 43.107555 13.610667 13.610667 0 0 1 0 24.917334 42.168889 42.168889 0 0 0-24.888889 43.093333 13.610667 13.610667 0 0 1-21.575111 12.472889 42.168889 42.168889 0 0 0-49.777778 0 13.610667 13.610667 0 0 1-21.575111-12.458667 42.168889 42.168889 0 0 0-24.888889-43.107555 13.610667 13.610667 0 0 1 0-24.917334 42.168889 42.168889 0 0 0 24.888889-43.093333 13.610667 13.610667 0 0 1 21.575111-12.472889 42.168889 42.168889 0 0 0 49.777778 0 13.610667 13.610667 0 0 1 19.029333 2.958222z m-63.715556 30.776889l-0.071111 0.327111a70.741333 70.741333 0 0 1-16.696889 30.904889l-3.029333 3.057778 0.256 0.227556a70.741333 70.741333 0 0 1 18.417778 29.909333l1.123555 4.138667 2.062223-0.568889a70.741333 70.741333 0 0 1 35.470222 0l2.048 0.568889 0.085333-0.312889c3.2-12.842667 9.955556-24.547556 19.484445-33.735111l0.227555-0.227556-0.241778-0.227556a70.741333 70.741333 0 0 1-18.417777-29.909333l-1.137778-4.152889-2.048 0.583111a70.741333 70.741333 0 0 1-35.470222 0l-2.062223-0.583111z" fill="#191919" /><path d="M753.777778 640m-14.222222 0a14.222222 14.222222 0 1 0 28.444444 0 14.222222 14.222222 0 1 0-28.444444 0Z" fill="#191919" /><path d="M384 625.777778m-213.333333 0a213.333333 213.333333 0 1 0 426.666666 0 213.333333 213.333333 0 1 0-426.666666 0Z" fill="#4571E7" /><path d="M305.777778 796.444444C451.086222 796.444444 568.888889 678.641778 568.888889 533.333333c0-24.704-3.413333-48.611556-9.770667-71.281777C540.444444 448 483.555556 391.111111 362.666667 391.111111 244.152889 391.111111 170.666667 459.847111 142.222222 597.333333c0 71.111111 17.806222 129.450667 53.404445 175.018667A262.129778 262.129778 0 0 0 305.777778 796.444444z" fill="#6087F0" /><path d="M384 355.555556C234.766222 355.555556 113.777778 476.544 113.777778 625.777778s120.988444 270.222222 270.222222 270.222222 270.222222-120.988444 270.222222-270.222222S533.233778 355.555556 384 355.555556z m0 56.888888c117.816889 0 213.333333 95.516444 213.333333 213.333334 0 117.816889-95.516444 213.333333-213.333333 213.333333-117.816889 0-213.333333-95.516444-213.333333-213.333333 0-117.816889 95.516444-213.333333 213.333333-213.333334z" fill="#191919" /><path d="M273.777778 764.913778a13.610667 13.610667 0 0 1-21.575111-12.458667 42.168889 42.168889 0 0 0-24.888889-43.107555 13.610667 13.610667 0 0 1 0-24.917334 42.168889 42.168889 0 0 0 24.888889-43.093333 13.610667 13.610667 0 0 1 21.575111-12.472889 42.168889 42.168889 0 0 0 49.777778 0 13.610667 13.610667 0 0 1 21.575111 12.458667 42.168889 42.168889 0 0 0 24.888889 43.107555 13.610667 13.610667 0 0 1 0 24.917334 42.168889 42.168889 0 0 0-24.888889 43.093333 13.610667 13.610667 0 0 1-21.575111 12.472889 42.168889 42.168889 0 0 0-49.777778 0z" fill="#3151B7" /><path d="M342.584889 631.822222c1.991111 2.744889 2.901333 6.129778 2.545778 9.500445a42.168889 42.168889 0 0 0 24.888889 43.107555 13.610667 13.610667 0 0 1 0 24.917334 42.168889 42.168889 0 0 0-24.888889 43.093333 13.610667 13.610667 0 0 1-21.575111 12.472889 42.168889 42.168889 0 0 0-49.777778 0 13.610667 13.610667 0 0 1-21.575111-12.458667 42.168889 42.168889 0 0 0-24.888889-43.107555 13.610667 13.610667 0 0 1 0-24.917334 42.168889 42.168889 0 0 0 24.888889-43.093333 13.610667 13.610667 0 0 1 21.575111-12.472889 42.168889 42.168889 0 0 0 49.777778 0 13.610667 13.610667 0 0 1 19.029333 2.958222z m-63.715556 30.776889l-0.071111 0.327111a70.741333 70.741333 0 0 1-16.696889 30.904889l-3.029333 3.057778 0.256 0.227555a70.741333 70.741333 0 0 1 18.417778 29.909334l1.123555 4.138666 2.062223-0.568888a70.741333 70.741333 0 0 1 35.470222 0l2.048 0.568888 0.085333-0.312888c3.2-12.842667 9.955556-24.547556 19.484445-33.735112l0.227555-0.227555-0.241778-0.227556a70.741333 70.741333 0 0 1-18.417777-29.909333l-1.137778-4.152889-2.048 0.583111a70.741333 70.741333 0 0 1-35.470222 0l-2.062223-0.583111z" fill="#191919" /><path d="M298.666667 696.888889m-14.222223 0a14.222222 14.222222 0 1 0 28.444445 0 14.222222 14.222222 0 1 0-28.444445 0Z" fill="#191919" /><path d="M287.060611 461.865944m24.633611 14.222222l0 0q24.633611 14.222222 10.411389 38.855834l0 0q-14.222222 24.633611-38.855833 10.411389l0 0q-24.633611-14.222222-10.411389-38.855833l0 0q14.222222-24.633611 38.855833-10.41139Z" fill="#FFFFFF" /></svg>