<?xml version="1.0" standalone="no"?><!DOCTYPE svg PUBLIC "-//W3C//DTD SVG 1.1//EN" "http://www.w3.org/Graphics/SVG/1.1/DTD/svg11.dtd"><svg class="icon" width="200px" height="200.00px" viewBox="0 0 1024 1024" version="1.1" xmlns="http://www.w3.org/2000/svg"><path d="M833.806222 190.193778a28.444444 28.444444 0 0 1 0 40.220444l-80.440889 80.455111a28.444444 28.444444 0 1 1-40.234666-40.234666l80.455111-80.440889a28.444444 28.444444 0 0 1 40.220444 0z" fill="#191919" /><path d="M215.537778 798.848l-35.413334-16.967111c-6.528-3.114667-10.808889-9.344-11.676444-17.009778l-4.920889-41.073778a22.513778 22.513778 0 0 0-5.916444-12.899555l-27.022223-28.273778c-5.063111-5.304889-7.210667-13.226667-5.845333-21.546667l6.727111-43.093333c0.810667-5.475556 0.142222-10.865778-1.92-15.488L112.64 565.048889c-3.313778-7.281778-3.171556-16.355556 0.355556-24.632889l17.294222-40.846222a32.853333 32.853333 0 0 0 2.360889-16.867556l-5.888-43.136a34.346667 34.346667 0 0 1 6.855111-25.400889l26.453333-34.304a34.133333 34.133333 0 0 0 6.741333-16.398222l5.475556-44.487111c1.109333-9.386667 6.001778-17.92 13.226667-23.04l34.033777-23.864889c4.721778-3.271111 8.504889-8.064 10.837334-13.724444l16.796444-41.102223c3.555556-8.789333 10.510222-15.274667 18.787556-17.493333l39.665778-10.296889c5.390222-1.365333 10.296889-4.508444 14.08-9.045333l27.633777-33.123556c5.831111-6.968889 14.236444-10.467556 22.784-9.472l42.453334 5.191111a25.6 25.6 0 0 0 16-3.228444l37.091555-21.034667a26.069333 26.069333 0 0 1 24.604445-0.398222l41.272889 20.721778c5.12 2.574222 10.808889 3.527111 16.312888 2.744889l43.804445-6.016c8.547556-1.137778 17.351111 1.92 23.964444 8.291555l35.242667 33.962667c4.224 4.081778 9.443556 6.883556 15.018667 8.064l46.08 9.927111a32.312889 32.312889 0 0 1 20.935111 15.587556l24.391111 42.837333c2.887111 5.091556 7.125333 9.329778 12.231111 12.231111l42.808889 24.376889c7.964444 4.551111 13.696 12.231111 15.601778 20.920889l9.927111 46.094222c1.180444 5.575111 3.982222 10.794667 8.064 15.018667l33.962666 35.242666c6.371556 6.599111 9.415111 15.416889 8.291556 23.978667l-6.016 43.804445c-0.782222 5.504 0.170667 11.178667 2.744889 16.298666l20.721778 41.272889c3.982222 7.964444 3.84 17.038222-0.398223 24.604445l-21.034666 37.091555a25.6 25.6 0 0 0-3.228445 16l5.191111 42.453333c0.995556 8.533333-2.503111 16.967111-9.472 22.784l-33.123555 27.633778c-4.536889 3.783111-7.68 8.689778-9.045333 14.08l-10.311112 39.665778c-2.204444 8.277333-8.689778 15.217778-17.479111 18.773333l-41.102222 16.810667c-5.660444 2.332444-10.439111 6.115556-13.724444 10.837333l-23.864889 34.048c-5.12 7.210667-13.653333 12.103111-23.04 13.212445l-44.487111 5.475555a34.133333 34.133333 0 0 0-16.398223 6.741334l-34.304 26.453333a34.346667 34.346667 0 0 1-25.400888 6.855111l-43.136-5.888a32.853333 32.853333 0 0 0-16.867556 2.360889l-40.846222 17.294222c-8.263111 3.527111-17.351111 3.669333-24.632889 0.355556l-37.447111-16.896a27.776 27.776 0 0 0-15.502222-1.92l-43.079112 6.727111c-8.334222 1.365333-16.241778-0.782222-21.546666-5.859556l-28.273778-27.008a22.513778 22.513778 0 0 0-12.899556-5.916444l-41.073777-4.920889c-7.68-0.881778-13.895111-5.148444-17.009778-11.690667l-16.967111-35.413333a20.394667 20.394667 0 0 0-9.614222-9.6z" fill="#E82626" /><path d="M187.093333 656.625778l-35.413333-16.967111c-6.528-3.114667-8.576-77.326222-9.457778-84.992l21.333334-56.888889-7.111112-56.888889 28.444445-56.888889 21.333333-56.888889 42.666667-35.555555 28.444444-56.888889 56.888889-28.444445 28.444445-35.555555h56.888889l56.888888-21.333334 56.888889 14.222223h56.888889l49.777778 42.666666 64 21.333334 42.666667 49.777777 49.777777 42.666667c1.180444 5.575111 31.473778 73.984 35.555556 78.222222l23.779556 54.954667a25.6 25.6 0 0 0-3.228445 16l5.191111 42.453333c0.995556 8.533333-2.503111 16.967111-9.472 22.784l-33.123555 27.633778c-4.536889 3.783111-7.68 8.689778-9.045334 14.08l-10.311111 39.665778c-2.204444 8.277333-8.689778 15.217778-17.479111 18.773333l-41.102222 16.810667c-5.660444 2.332444-10.439111 6.115556-13.724445 10.837333l-23.864888 34.048c-5.12 7.210667-13.653333 12.103111-23.04 13.212445l-44.487112 5.475555a34.133333 34.133333 0 0 0-16.398222 6.741333l-34.304 26.453334a34.346667 34.346667 0 0 1-25.400889 6.855111l-43.136-5.888a32.853333 32.853333 0 0 0-16.867555 2.360889l-40.846222 17.294222c-8.263111 3.527111-17.351111 3.669333-24.632889 0.355556l-37.447111-16.896a27.776 27.776 0 0 0-15.502223-1.92l-43.079111 6.727111c-8.334222 1.365333-16.241778-0.782222-21.546666-5.859556l-28.273778-27.008a22.513778 22.513778 0 0 0-12.899556-5.916444l-41.073778-4.920889c-7.68-0.881778-13.895111-5.148444-17.009777-11.690667l-16.967111-35.413333a20.394667 20.394667 0 0 0-9.614223-9.6z" fill="#FF5252" /><path d="M827.960889 311.992889l9.927111 46.094222c1.180444 5.575111 3.982222 10.794667 8.064 15.018667l33.962667 35.242666c6.371556 6.599111 9.415111 15.416889 8.291555 23.978667l-6.016 43.804445c-0.782222 5.504 0.170667 11.178667 2.744889 16.298666l20.721778 41.272889c3.982222 7.964444 3.84 17.038222-0.398222 24.604445l-21.034667 37.091555a25.6 25.6 0 0 0-3.228444 16l5.191111 42.453333c0.995556 8.533333-2.503111 16.967111-9.472 22.784l-33.123556 27.633778c-4.536889 3.783111-7.68 8.689778-9.045333 14.08l-10.311111 39.665778c-2.204444 8.277333-8.689778 15.217778-17.479111 18.773333l-41.102223 16.810667c-5.660444 2.332444-10.439111 6.115556-13.724444 10.837333l-23.864889 34.048c-5.12 7.210667-13.653333 12.103111-23.04 13.212445l-44.487111 5.475555a34.133333 34.133333 0 0 0-16.398222 6.741334l-34.304 26.453333a34.346667 34.346667 0 0 1-25.400889 6.855111l-43.136-5.888a32.853333 32.853333 0 0 0-16.867556 2.360889l-40.846222 17.294222c-8.263111 3.527111-17.351111 3.669333-24.632889 0.355556l-37.447111-16.896a27.776 27.776 0 0 0-15.502222-1.92l-43.079111 6.727111c-8.334222 1.365333-16.241778-0.782222-21.546667-5.859556l-28.273778-27.008a22.513778 22.513778 0 0 0-12.899555-5.916444l-41.073778-4.920889c-7.68-0.881778-13.895111-5.148444-17.009778-11.690667l-16.967111-35.413333a20.394667 20.394667 0 0 0-9.614222-9.6l-35.413334-16.967111c-6.528-3.114667-10.808889-9.344-11.676444-17.009778l-4.920889-41.073778a22.513778 22.513778 0 0 0-5.916444-12.899555l-27.022223-28.273778c-5.063111-5.304889-7.210667-13.226667-5.845333-21.546667l6.727111-43.093333c0.810667-5.475556 0.142222-10.865778-1.92-15.488L112.64 565.048889c-3.313778-7.281778-3.171556-16.355556 0.355556-24.632889l17.294222-40.846222a32.853333 32.853333 0 0 0 2.360889-16.867556l-5.888-43.136a34.346667 34.346667 0 0 1 6.855111-25.400889l26.453333-34.304a34.133333 34.133333 0 0 0 6.741333-16.398222l5.475556-44.487111c1.109333-9.386667 6.001778-17.92 13.226667-23.04l34.033777-23.864889c4.721778-3.271111 8.504889-8.064 10.837334-13.724444l16.796444-41.102223c3.555556-8.789333 10.510222-15.274667 18.787556-17.493333l39.665778-10.296889c5.390222-1.365333 10.296889-4.508444 14.08-9.045333l27.633777-33.123556c5.831111-6.968889 14.236444-10.467556 22.784-9.472l42.453334 5.191111a25.6 25.6 0 0 0 16-3.228444l37.091555-21.034667a26.069333 26.069333 0 0 1 24.604445-0.398222l41.272889 20.721778c5.12 2.574222 10.808889 3.527111 16.312888 2.744889l43.804445-6.016c8.547556-1.137778 17.351111 1.92 23.964444 8.291555l35.242667 33.962667c4.224 4.081778 9.443556 6.883556 15.018667 8.064l46.08 9.927111a32.312889 32.312889 0 0 1 20.935111 15.587556l24.391111 42.837333c2.887111 5.091556 7.125333 9.329778 12.231111 12.231111l42.808889 24.376889c7.964444 4.551111 13.696 12.231111 15.601778 20.920889z m-139.079111-62.762667l-34.744889-7.466666a87.822222 87.822222 0 0 1-42.737778-22.755556l-25.884444-24.974222-29.553778 4.081778a84.280889 84.280889 0 0 1-46.336-6.513778l-3.584-1.706667-26.780445-13.44-22.385777 12.686222a82.417778 82.417778 0 0 1-47.402667 10.723556l-3.768889-0.398222-25.230222-3.086223-17.052445 20.465778a84.010667 84.010667 0 0 1-39.608888 26.595556l-3.868445 1.080889-25.102222 6.499555-11.861333 29.041778a88.135111 88.135111 0 0 1-27.406223 36.124444l-3.342222 2.460445-24.704 17.308444-4.266667 34.773334a91.107556 91.107556 0 0 1-15.530666 40.334222l-2.588445 3.527111-20.679111 26.837333 4.593778 33.848889c1.877333 14.222222 0.199111 28.743111-4.778667 42.382222l-1.578666 4.081778-13.155556 31.061334 11.904 26.396444a84.337778 84.337778 0 0 1 6.741333 43.477333l-0.512 4.096-4.465777 28.558223 15.530666 16.270222a79.203556 79.203556 0 0 1 20.693334 41.500444l0.583111 3.939556 2.659555 22.144 17.521778 8.391111a77.283556 77.283556 0 0 1 34.403556 32.682667l1.848889 3.626666 8.362666 17.436445 22.414222 2.702222a79.530667 79.530667 0 0 1 42.24 18.574222l2.929778 2.659556 16.270222 15.516444 28.899556-4.494222a84.906667 84.906667 0 0 1 43.562667 4.750222l3.768889 1.564445 26.282666 11.847111 31.288889-13.226667a90.012444 90.012444 0 0 1 42.154667-6.712889l4.352 0.469333 33.578666 4.565334 26.865778-20.679111a91.036444 91.036444 0 0 1 39.751111-17.464889l4.408889-0.682667 34.446222-4.252444 17.194667-24.490667a87.765333 87.765333 0 0 1 35.000889-29.297778l3.896889-1.720889 28.842667-11.804444 6.428444-24.746667a83.712 83.712 0 0 1 24.689778-41.116444l3.057778-2.702222 20.48-17.066667-3.057778-24.96a82.346667 82.346667 0 0 1 8.362666-47.857778l1.806223-3.342222 12.8-22.613333-13.397334-26.709334a84.408889 84.408889 0 0 1-8.760889-45.767111l0.455112-3.882667 4.124444-29.909333-24.96-25.884444a87.893333 87.893333 0 0 1-21.774222-38.570667l-0.938667-3.953778-7.537778-34.944-33.308444-18.972444a89.486222 89.486222 0 0 1-31.288889-29.781334l-2.275556-3.754666-18.986666-33.379556z" fill="#191919" /><path d="M446.520889 653.255111l-9.528889 38.072889a12.728889 12.728889 0 0 1-21.333333 5.916444l-28.558223-28.558222a12.728889 12.728889 0 0 1 5.916445-21.333333l38.072889-9.528889a12.728889 12.728889 0 0 1 15.431111 15.431111zM645.930667 723.655111l-9.528889 38.072889a12.728889 12.728889 0 0 1-21.333334 5.916444l-28.558222-28.558222a12.728889 12.728889 0 0 1 5.902222-21.347555l38.087112-9.528889a12.728889 12.728889 0 0 1 15.431111 15.445333zM554.524444 678.784l-33.664 20.195556a12.728889 12.728889 0 0 1-19.271111-10.908445v-40.391111a12.728889 12.728889 0 0 1 19.271111-10.908444l33.649778 20.195555a12.728889 12.728889 0 0 1 0 21.816889z" fill="#D81616" opacity=".697" /><path d="M412.302222 323.228444l-33.664 20.195556a12.728889 12.728889 0 0 1-19.271111-10.908444v-40.391112a12.728889 12.728889 0 0 1 19.271111-10.908444l33.649778 20.195556a12.728889 12.728889 0 0 1 0 21.816888z" fill="#FFFFFF" opacity=".851" /><path d="M657.706667 602.965333l-9.528889 38.087111a12.728889 12.728889 0 0 1-21.333334 5.902223l-28.558222-28.558223a12.728889 12.728889 0 0 1 5.916445-21.333333l38.072889-9.528889a12.728889 12.728889 0 0 1 15.431111 15.431111zM373.489778 739.128889l-33.649778 20.195555a12.728889 12.728889 0 0 1-19.271111-10.908444v-40.391111a12.728889 12.728889 0 0 1 19.271111-10.908445l33.649778 20.195556a12.728889 12.728889 0 0 1 0 21.816889zM305.550222 632.448l-8.177778 38.385778a12.728889 12.728889 0 0 1-21.134222 6.656l-29.525333-27.548445a12.728889 12.728889 0 0 1 5.162667-21.532444l37.717333-10.851556a12.728889 12.728889 0 0 1 15.957333 14.890667zM780.970667 472.704l-0.014223 39.253333a12.728889 12.728889 0 0 1-19.285333 10.894223l-34.616889-20.792889a12.728889 12.728889 0 0 1 0.568889-22.144l34.645333-18.446223a12.728889 12.728889 0 0 1 18.702223 11.235556zM678.044444 692.551111l9.528889-38.072889a12.728889 12.728889 0 0 1 21.333334-5.902222l28.558222 28.558222a12.728889 12.728889 0 0 1-5.902222 21.333334l-38.087111 9.528888a12.728889 12.728889 0 0 1-15.431112-15.445333zM741.589333 621.454222l-20.195555-33.649778a12.728889 12.728889 0 0 1 10.908444-19.271111h40.391111a12.728889 12.728889 0 0 1 10.908445 19.271111l-20.195556 33.649778a12.728889 12.728889 0 0 1-21.816889 0zM431.502222 754.488889l10.794667 37.731555a12.728889 12.728889 0 0 1-15.530667 15.786667l-39.011555-10.439111a12.728889 12.728889 0 0 1-5.546667-21.447111l28.216889-27.278222a12.728889 12.728889 0 0 1 21.077333 5.646222zM506.112 785.820444l-20.195556-33.664a12.728889 12.728889 0 0 1 10.922667-19.271111h40.391111a12.728889 12.728889 0 0 1 10.908445 19.271111l-20.195556 33.664a12.728889 12.728889 0 0 1-21.831111 0z" fill="#D81616" opacity=".697" /><path d="M503.409778 269.255111l-9.528889 38.072889a12.728889 12.728889 0 0 1-21.333333 5.916444l-28.558223-28.558222a12.728889 12.728889 0 0 1 5.916445-21.333333l38.072889-9.528889a12.728889 12.728889 0 0 1 15.431111 15.431111z" fill="#FFFFFF" opacity=".851" /></svg>