<?xml version="1.0" standalone="no"?><!DOCTYPE svg PUBLIC "-//W3C//DTD SVG 1.1//EN" "http://www.w3.org/Graphics/SVG/1.1/DTD/svg11.dtd"><svg class="icon" width="200px" height="200.00px" viewBox="0 0 1024 1024" version="1.1" xmlns="http://www.w3.org/2000/svg"><path d="M310.869333 310.869333a2048.967111 2048.967111 0 0 1 48.241778-46.691555c95.189333-89.144889 236.046222-100.209778 342.528-34.488889h64.213333a28.444444 28.444444 0 0 1 28.444445 28.444444v64.227556c65.735111 106.481778 54.670222 247.338667-34.474667 342.528a2048.967111 2048.967111 0 0 1-94.933333 94.933333c-95.189333 89.144889-236.032 100.195556-342.513778 34.488889H258.133333a28.444444 28.444444 0 0 1-28.444444-28.444444l-0.014222-64.241778c-65.706667-106.481778-54.656-247.324444 34.488889-342.513778 15.303111-16.355556 30.862222-32.426667 46.691555-48.241778z" fill="#F9B000" /><path d="M222.08 354.247111c4.266667-4.252444 8.675556-8.334222 13.255111-12.245333A1352.049778 1352.049778 0 0 0 312.888889 270.222222c4.920889-4.920889 9.813333-9.770667 14.691555-14.520889 104.035556-101.788444 261.262222-122.396444 386.986667-54.385777l77.923556 0.028444a28.444444 28.444444 0 0 1 28.444444 28.444444v82.176c29.525333 67.128889 24.803556 147.512889-19.555555 212.565334a219.875556 219.875556 0 0 1-17.976889 22.940444 2238.762667 2238.762667 0 0 1-137.813334 140.686222c-103.296 96.568889-256.483556 107.662222-371.228444 34.816l-60.373333-0.014222a28.444444 28.444444 0 0 1-28.444445-28.444444v-60.928c-51.356444-88.419556-39.182222-203.619556 36.551111-279.324445z" fill="#FBD700" /><path d="M270.648889 270.648889a2105.856 2105.856 0 0 0-47.985778 49.578667l-3.697778 3.982222c-97.365333 107.320889-115.242667 263.324444-48.355555 388.721778l2.190222 4.053333v48.881778l0.085333 3.612444a85.333333 85.333333 0 0 0 85.262223 81.706667h48.853333l4.067555 2.204444c126.961778 67.726222 285.297778 48.540444 392.704-52.053333a2105.856 2105.856 0 0 0 97.564445-97.564445l3.697778-3.982222c97.365333-107.335111 115.242667-263.338667 48.355555-388.736l-2.204444-4.039111V258.133333l-0.071111-3.612444a85.333333 85.333333 0 0 0-85.262223-81.720889h-48.867555l-4.039111-2.204444c-126.961778-67.726222-285.297778-48.540444-392.718222 52.053333a2105.856 2105.856 0 0 0-49.592889 47.971555z m40.220444 40.220444a2048.967111 2048.967111 0 0 1 48.241778-46.691555c95.189333-89.144889 236.046222-100.209778 342.528-34.488889h64.213333a28.444444 28.444444 0 0 1 28.444445 28.444444v64.227556c65.735111 106.481778 54.670222 247.338667-34.474667 342.528a2048.967111 2048.967111 0 0 1-94.933333 94.933333c-95.189333 89.144889-236.032 100.195556-342.513778 34.488889H258.133333a28.444444 28.444444 0 0 1-28.444444-28.444444l-0.014222-64.241778c-65.706667-106.481778-54.656-247.324444 34.488889-342.513778 15.303111-16.355556 30.862222-32.426667 46.691555-48.241778z" fill="#191919" /><path d="M359.637333 342.570667a14.222222 14.222222 0 0 1 20.224 20.010666c-7.736889 7.822222-15.388444 15.729778-22.968889 23.708445a14.222222 14.222222 0 1 1-20.636444-19.555556c7.708444-8.135111 15.502222-16.199111 23.381333-24.163555z m42.197334-41.031111a226.816 226.816 0 0 1 229.276444-48.839112 14.222222 14.222222 0 0 1-9.287111 26.88 198.371556 198.371556 0 0 0-200.547556 42.709334 14.222222 14.222222 0 0 1-19.441777-20.764445z" fill="#FFFFFF" /><path d="M497.777778 753.777778m21.333333 0l0 0q21.333333 0 21.333333 21.333333l0 0q0 21.333333-21.333333 21.333333l0 0q-21.333333 0-21.333333-21.333333l0 0q0-21.333333 21.333333-21.333333Z" fill="#F9B000" /><path d="M512 654.222222m21.333333 0l0 0q21.333333 0 21.333334 21.333334l0 0q0 21.333333-21.333334 21.333333l0 0q-21.333333 0-21.333333-21.333333l0 0q0-21.333333 21.333333-21.333334Z" fill="#F9B000" /><path d="M426.666667 696.888889m21.333333 0l0 0q21.333333 0 21.333333 21.333333l0 0q0 21.333333-21.333333 21.333334l0 0q-21.333333 0-21.333333-21.333334l0 0q0-21.333333 21.333333-21.333333Z" fill="#F9B000" /></svg>