<?xml version="1.0" standalone="no"?><!DOCTYPE svg PUBLIC "-//W3C//DTD SVG 1.1//EN" "http://www.w3.org/Graphics/SVG/1.1/DTD/svg11.dtd"><svg class="icon" width="200px" height="200.00px" viewBox="0 0 1024 1024" version="1.1" xmlns="http://www.w3.org/2000/svg"><path d="M433.777778 789.333333m-135.111111 0a135.111111 135.111111 0 1 0 270.222222 0 135.111111 135.111111 0 1 0-270.222222 0Z" fill="#8116E1" /><path d="M391.111111 746.666667m-120.888889 0a120.888889 120.888889 0 1 0 241.777778 0 120.888889 120.888889 0 1 0-241.777778 0Z" fill="#983BEC" /><path d="M433.777778 625.777778C343.452444 625.777778 270.222222 699.008 270.222222 789.333333S343.452444 952.888889 433.777778 952.888889 597.333333 879.658667 597.333333 789.333333 524.103111 625.777778 433.777778 625.777778z m0 56.888889a106.666667 106.666667 0 1 1 0 213.333333 106.666667 106.666667 0 0 1 0-213.333333z" fill="#191919" /><path d="M625.777778 632.888889m-149.333334 0a149.333333 149.333333 0 1 0 298.666667 0 149.333333 149.333333 0 1 0-298.666667 0Z" fill="#8116E1" /><path d="M583.111111 583.111111m-135.111111 0a135.111111 135.111111 0 1 0 270.222222 0 135.111111 135.111111 0 1 0-270.222222 0Z" fill="#983BEC" /><path d="M625.777778 455.111111c-98.190222 0-177.777778 79.587556-177.777778 177.777778S527.587556 810.666667 625.777778 810.666667s177.777778-79.587556 177.777778-177.777778S723.968 455.111111 625.777778 455.111111z m0 56.888889a120.888889 120.888889 0 1 1 0 241.777778 120.888889 120.888889 0 0 1 0-241.777778z" fill="#191919" /><path d="M376.888889 625.777778m-142.222222 0a142.222222 142.222222 0 1 0 284.444444 0 142.222222 142.222222 0 1 0-284.444444 0Z" fill="#8116E1" /><path d="M341.333333 590.222222m-120.888889 0a120.888889 120.888889 0 1 0 241.777778 0 120.888889 120.888889 0 1 0-241.777778 0Z" fill="#983BEC" /><path d="M376.888889 455.111111c-94.250667 0-170.666667 76.416-170.666667 170.666667s76.416 170.666667 170.666667 170.666666 170.666667-76.416 170.666667-170.666666-76.416-170.666667-170.666667-170.666667z m0 56.888889a113.777778 113.777778 0 1 1 0 227.555556 113.777778 113.777778 0 0 1 0-227.555556z" fill="#191919" /><path d="M291.555556 440.888889m-142.222223 0a142.222222 142.222222 0 1 0 284.444445 0 142.222222 142.222222 0 1 0-284.444445 0Z" fill="#8116E1" /><path d="M256 405.333333m-120.888889 0a120.888889 120.888889 0 1 0 241.777778 0 120.888889 120.888889 0 1 0-241.777778 0Z" fill="#983BEC" /><path d="M291.555556 270.222222c-94.250667 0-170.666667 76.416-170.666667 170.666667s76.416 170.666667 170.666667 170.666667 170.666667-76.416 170.666666-170.666667-76.416-170.666667-170.666666-170.666667z m0 56.888889a113.777778 113.777778 0 1 1 0 227.555556 113.777778 113.777778 0 0 1 0-227.555556z" fill="#191919" /><path d="M267.249778 358.542222a14.222222 14.222222 0 1 1 6.926222 27.591111c-4.565333 1.137778-9.002667 2.744889-13.240889 4.778667a14.222222 14.222222 0 0 1-12.273778-25.671111c5.944889-2.844444 12.174222-5.077333 18.588445-6.684445z" fill="#FFFFFF" /><path d="M732.444444 483.555556m-142.222222 0a142.222222 142.222222 0 1 0 284.444445 0 142.222222 142.222222 0 1 0-284.444445 0Z" fill="#8116E1" /><path d="M689.777778 440.888889m-128 0a128 128 0 1 0 256 0 128 128 0 1 0-256 0Z" fill="#983BEC" /><path d="M732.444444 312.888889c-94.250667 0-170.666667 76.416-170.666666 170.666667s76.416 170.666667 170.666666 170.666666 170.666667-76.416 170.666667-170.666666-76.416-170.666667-170.666667-170.666667z m0 56.888889a113.777778 113.777778 0 1 1 0 227.555555 113.777778 113.777778 0 0 1 0-227.555555zM578.887111 70.428444a28.444444 28.444444 0 1 0-48.440889 29.809778c32.540444 52.906667 32.540444 113.92-1.521778 186.311111a28.444444 28.444444 0 0 0 51.484445 24.234667c41.784889-88.803556 41.784889-169.998222-1.521778-240.355556z" fill="#191919" /><path d="M376.32 295.324444c52.152889 30.108444 113.578667 32.739556 184.305778 7.879112-13.838222-73.671111-46.819556-125.568-98.986667-155.676445-52.138667-30.108444-113.578667-32.739556-184.305778-7.879111 13.838222 73.671111 46.833778 125.582222 98.986667 155.676444z" fill="#69BD50" /><path d="M475.875556 122.88c-59.832889-34.531556-129.848889-37.532444-207.971556-10.069333a28.444444 28.444444 0 0 0-18.517333 32.085333c15.274667 81.379556 52.878222 140.515556 112.711111 175.075556 59.832889 34.531556 129.848889 37.532444 207.957333 10.069333a28.444444 28.444444 0 0 0 18.531556-32.085333c-15.288889-81.379556-52.878222-140.515556-112.711111-175.075556z m-28.444445 49.28l4.124445 2.460444c35.299556 21.831111 60.017778 56.234667 74.140444 104.462223l1.308444 4.707555-4.736 1.223111c-50.716444 12.330667-94.208 7.338667-131.726222-14.321777l-4.124444-2.460445c-35.313778-21.831111-60.017778-56.234667-74.140445-104.462222l-1.322666-4.707556 4.736-1.223111c50.716444-12.330667 94.208-7.338667 131.740444 14.321778z" fill="#191919" /><path d="M736.853333 325.319111c48.071111-12.871111 85.475556-47.217778 112.270223-103.054222-51.114667-34.958222-100.693333-45.994667-148.764445-33.123556-48.042667 12.871111-85.461333 47.217778-112.256 103.054223 51.128889 34.958222 100.707556 46.008889 148.764445 33.137777z" fill="#69BD50" /><path d="M693.006222 161.664c-56.604444 15.175111-100.366222 55.324444-130.545778 118.229333a28.444444 28.444444 0 0 0 9.585778 35.783111c57.6 39.395556 115.555556 52.295111 172.174222 37.12 56.618667-15.175111 100.366222-55.324444 130.56-118.229333a28.444444 28.444444 0 0 0-9.6-35.783111c-57.6-39.395556-115.555556-52.295111-172.174222-37.12z m14.734222 54.954667l4.081778-1.024c29.980444-6.968889 60.984889-2.602667 93.752889 13.824l5.688889 2.986666-0.568889 0.995556c-21.589333 34.631111-48.526222 55.694222-81.208889 64.440889l-4.081778 1.024c-29.980444 6.983111-60.984889 2.602667-93.752888-13.824l-5.717334-2.986667 0.611556-0.981333c21.575111-34.645333 48.512-55.708444 81.194666-64.455111z" fill="#191919" /><path d="M490.666667 419.555556m-163.555556 0a163.555556 163.555556 0 1 0 327.111111 0 163.555556 163.555556 0 1 0-327.111111 0Z" fill="#8116E1" /><path d="M462.222222 376.888889m-135.111111 0a135.111111 135.111111 0 1 0 270.222222 0 135.111111 135.111111 0 1 0-270.222222 0Z" fill="#983BEC" /><path d="M490.666667 227.555556C384.625778 227.555556 298.666667 313.514667 298.666667 419.555556S384.625778 611.555556 490.666667 611.555556 682.666667 525.596444 682.666667 419.555556 596.707556 227.555556 490.666667 227.555556z m0 56.888888a135.111111 135.111111 0 1 1 0 270.222223 135.111111 135.111111 0 0 1 0-270.222223z" fill="#191919" /><path d="M469.617778 322.232889c-7.139556 1.536-13.994667 3.84-20.48 6.826667m17.493333-20.736l5.973333 27.804444c-6.058667 1.308444-11.918222 3.271111-17.521777 5.831111l-11.875556-25.841778a113.038222 113.038222 0 0 1 23.409778-7.793777z" fill="#D8D8D8" /><path d="M466.631111 308.337778a14.222222 14.222222 0 0 1 5.973333 27.790222c-6.058667 1.308444-11.918222 3.271111-17.521777 5.831111a14.222222 14.222222 0 0 1-11.875556-25.841778 113.038222 113.038222 0 0 1 23.409778-7.793777z" fill="#FFFFFF" /></svg>