<?xml version="1.0" standalone="no"?><!DOCTYPE svg PUBLIC "-//W3C//DTD SVG 1.1//EN" "http://www.w3.org/Graphics/SVG/1.1/DTD/svg11.dtd"><svg class="icon" width="200px" height="200.00px" viewBox="0 0 1024 1024" version="1.1" xmlns="http://www.w3.org/2000/svg"><path d="M604.444444 854.215111c68.024889 39.281778 146.204444 46.08 234.524445 20.451556-21.959111-89.315556-66.944-153.6-134.968889-192.881778-68.024889-39.281778-146.204444-46.08-234.524444-20.451556 21.959111 89.315556 66.944 153.6 134.968888 192.881778z" fill="#69BD50" /><path d="M718.222222 657.152c-75.050667-43.335111-161.208889-50.844444-256.682666-23.139556a28.444444 28.444444 0 0 0-19.697778 34.104889c23.751111 96.540444 73.329778 167.395556 148.380444 210.730667 75.050667 43.335111 161.208889 50.844444 256.682667 23.139556a28.444444 28.444444 0 0 0 19.697778-34.104889c-23.751111-96.540444-73.329778-167.395556-148.380445-210.730667z m-28.444444 49.265778l5.034666 2.986666c49.877333 30.392889 85.447111 76.444444 106.951112 139.249778l1.877333 5.617778-5.788445 1.180444c-67.313778 13.198222-126.663111 4.451556-179.185777-25.870222l-5.034667-2.986666c-49.877333-30.392889-85.447111-76.444444-106.951111-139.249778l-1.891556-5.617778 5.802667-1.180444c67.313778-13.198222 126.663111-4.451556 179.185778 25.870222z" fill="#191919" /><path d="M419.555556 854.215111c68.024889-39.267556 113.009778-103.566222 134.968888-192.881778-88.32-25.642667-166.499556-18.830222-234.524444 20.451556-68.024889 39.267556-113.009778 103.566222-134.968889 192.881778 88.32 25.642667 166.499556 18.830222 234.524445-20.451556z" fill="#69BD50" /><path d="M305.777778 657.152c-75.050667 43.335111-124.643556 114.190222-148.380445 210.730667a28.444444 28.444444 0 0 0 19.697778 34.104889c95.473778 27.704889 181.617778 20.195556 256.682667-23.139556 75.050667-43.335111 124.643556-114.190222 148.380444-210.730667a28.444444 28.444444 0 0 0-19.697778-34.104889c-95.473778-27.704889-181.617778-20.195556-256.682666 23.139556z m28.444444 49.265778l5.105778-2.872889c51.256889-27.989333 108.942222-35.783111 174.08-22.997333l5.788444 1.180444-1.863111 5.617778c-22.229333 64.896-59.477333 111.914667-112 142.236444l-5.105777 2.872889c-51.256889 27.989333-108.942222 35.783111-174.08 22.997333l-5.802667-1.180444 1.877333-5.617778c22.229333-64.896 59.477333-111.914667 112-142.236444z" fill="#191919" /><path d="M777.912889 693.959111c-61.269333 61.269333-163.271111 66.986667-267.008 25.173333l1.251555 0.497778c-103.125333 41.628444-204.117333 36.295111-264.533333-24.135111-60.728889-60.728889-72.405333-179.171556-28.273778-276.906667 56.504889-125.084444 185.201778-204.088889 260.807111-240.398222 11.875556-8.789333 22.144-15.203556 30.165334-18.488889 1.948444 0.768 3.982222 1.592889 6.115555 2.474667l0.256-0.085333c1.664 0.668444 3.413333 1.479111 5.262223 2.417777 67.100444 28.956444 209.991111 111.018667 285.667555 251.306667 53.816889 99.768889 31.559111 216.888889-29.724444 278.144z" fill="#FA6896" /><path d="M735.246222 622.848c-61.269333 61.269333-163.271111 66.986667-267.008 25.173333l1.251556 0.497778c-103.125333 41.628444-204.117333 36.295111-264.533334-24.135111-37.888-44.273778-46.264889-141.084444-4.551111-230.087111L199.111111 391.111111c1.720889-2.104889 3.925333-4.622222 6.570667-7.509333 2.417778-4.650667 4.977778-9.244444 7.651555-13.824 71.111111-120.888889 238.094222-217.742222 298.666667-241.777778l2.872889 1.137778c48.298667 18.915556 126.748444 50.830222 196.579555 135.466666C743.182222 290.275556 769.422222 313.272889 782.222222 327.111111a358.257778 358.257778 0 0 1-12.458666 26.936889c47.587556 97.635556 24.846222 209.450667-34.517334 268.8z" fill="#FC8EB1" /><path d="M488.817778 107.036444a56.888889 56.888889 0 0 1 42.254222-0.298666l3.043556 1.208889 0.768 0.241777 3.086222 1.137778c3.214222 1.294222 6.414222 2.759111 9.656889 4.408889l-1.336889-0.668444 5.020444 2.190222c113.123556 50.375111 229.148444 140.444444 298.24 259.029333l4.167111 7.296 3.982223 7.224889c62.833778 116.48 43.662222 262.144-39.566223 345.386667-73.130667 73.130667-187.221333 86.869333-304.924444 46.506666l-0.938667-0.341333-2.275555 0.796445c-115.114667 39.608889-226.417778 27.420444-298.951111-41.870223l-3.655112-3.555555c-78.72-78.72-93.226667-222.421333-39.879111-340.551111 51.555556-114.161778 154.168889-201.073778 273.621334-261.191111l9.642666-4.764445 4.736-3.356444c10.481778-7.253333 20.124444-12.956444 29.368889-17.137778z m21.504 52.679112c-8.021333 3.271111-18.289778 9.685333-30.151111 18.488888-75.619556 36.295111-204.316444 115.299556-260.821334 240.398223-44.131556 97.720889-32.455111 216.177778 28.259556 276.892444 53.916444 53.902222 140.117333 63.971556 231.324444 35.953778a21.475556 21.475556 0 0 1 2.304-0.952889c79.047111-27.776 127.957333-78.762667 149.134223-154.993778a28.444444 28.444444 0 1 1 54.812444 15.217778c-17.621333 63.431111-51.598222 113.635556-101.191111 150.044444 76.785778 14.336 147.2-0.085333 193.92-46.791111 61.269333-61.269333 83.527111-178.389333 29.710222-278.158222-73.358222-135.964444-209.834667-217.244444-279.253333-248.490667l-6.4-2.816a80.739556 80.739556 0 0 0-1.820445-0.896l-3.456-1.521777-0.241777 0.085333z" fill="#191919" /><path d="M369.777778 337.777778C335.118222 364.828444 288 426.666667 273.777778 469.333333M433.777778 280.888889c-8.348444 6.172444-13.994667 10.311111-21.333334 17.777778" fill="#D8D8D8" /><path d="M361.031111 326.570667a14.222222 14.222222 0 0 1 17.493333 22.414222c-34.133333 26.652444-78.506667 86.613333-91.249777 124.842667a14.222222 14.222222 0 1 1-26.993778-8.988445c14.592-43.776 62.350222-108.302222 100.750222-138.268444z m64.284445-57.116445a14.222222 14.222222 0 0 1 16.924444 22.869334l-8.163556 6.115555-1.564444 1.223111c-3.555556 2.844444-6.570667 5.546667-9.927111 8.96a14.222222 14.222222 0 0 1-20.280889-19.911111c3.128889-3.2 6.072889-5.944889 9.230222-8.604444l3.228445-2.659556c2.773333-2.218667 4.736-3.697778 10.567111-7.992889z" fill="#FFFFFF" /></svg>