<?xml version="1.0" standalone="no"?><!DOCTYPE svg PUBLIC "-//W3C//DTD SVG 1.1//EN" "http://www.w3.org/Graphics/SVG/1.1/DTD/svg11.dtd"><svg class="icon" width="200px" height="200.00px" viewBox="0 0 1024 1024" version="1.1" xmlns="http://www.w3.org/2000/svg"><path d="M799.402667 324.636444c75.093333 43.363556 74.069333 108.188444 48.312889 204.359112-77.312 288.483556-373.048889 325.76-610.872889 188.458666-75.093333-43.363556-159.459556-140.373333-116.096-215.466666 42.680889-73.955556 138.951111-86.385778 212.650666-59.264 73.728 27.107556 189.724444-1.251556 252.060445-65.265778 62.336-64 138.837333-96.184889 213.944889-52.821334z" fill="#FDDA72" /><path d="M827.847111 275.370667c-94.051556-54.300444-194.659556-26.112-279.182222 58.396444l-3.968 4.010667c-45.368889 46.577778-134.912 70.072889-188.359111 52.693333l-3.299556-1.137778c-105.713778-38.897778-226.702222-10.808889-281.557333 84.195556-58.922667 102.072889 20.608 226.033778 136.917333 293.191111 289.137778 166.926222 611.271111 86.712889 694.257778-223.004444 35.413333-132.110222 21.205333-212.906667-74.808889-268.344889z m-28.444444 49.265777c75.093333 43.363556 74.069333 108.188444 48.312889 204.359112-77.312 288.483556-373.048889 325.76-610.872889 188.458666-75.093333-43.363556-159.459556-140.373333-116.096-215.466666 41.955556-72.675556 135.637333-85.930667 208.824889-60.629334l3.84 1.365334c72.419556 26.638222 185.656889-0.284444 248.718222-61.923556l3.328-3.342222c62.336-64 138.837333-96.184889 213.944889-52.821334z" fill="#191919" /><path d="M146.887111 468.081778a42.666667 42.666667 0 0 0-52.252444 30.151111l-14.72 54.968889a42.666667 42.666667 0 0 0 82.417777 22.072889l14.72-54.940445a42.666667 42.666667 0 0 0-27.761777-51.541333l-2.403556-0.711111z" fill="#191919" /><path d="M899.342222 176.540444a49.777778 49.777778 0 0 1-25.756444 96.170667l-31.331556-8.391111-23.452444 70.4C883.100444 362.012444 896 422.044444 896 512c0 298.666667-276.024889 411.221333-541.269333 340.138667-83.768889-22.442667-190.364444-94.307556-167.921778-178.062223C208.924444 591.573333 298.666667 554.666667 376.888889 561.777778c78.222222 7.111111 182.926222-50.318222 226.574222-128.270222 32.526222-58.083556 77.226667-101.148444 132.551111-110.037334l26.808889-80.440889-26.609778-7.125333a49.777778 49.777778 0 1 1 25.756445-96.170667l137.386666 36.807111z" fill="#FDDA72" /><path d="M888.888889 341.333333c21.333333 71.111111 51.569778 156.401778 21.333333 277.333334-71.111111 284.444444-348.444444 284.444444-476.444444 277.333333C369.777778 888.888889 170.666667 824.888889 170.666667 732.444444c27.818667-103.808 130.346667 2.474667 251.377777 2.474667 121.045333 0 266.083556-73.429333 336.014223-186.168889C827.989333 436.039111 783.459556 313.102222 888.888889 341.333333z" fill="#FDC51D" /><path d="M795.064889 351.928889C824.888889 362.666667 945.777778 305.777778 960 241.777778s-29.838222-89.386667-120.888889-113.777778c-91.050667-24.391111-149.333333-28.444444-168.405333 28.643556-19.057778 57.088 33.322667 170.894222 124.359111 195.285333z" fill="#C7D93B" /><path d="M914.062222 121.6L776.718222 84.764444a106.666667 106.666667 0 0 0-130.645333 75.434667l-0.853333 3.342222a106.723556 106.723556 0 0 0 42.951111 111.843556l2.261333 1.536-3.015111 1.137778c-52.195556 20.295111-96.028444 62.990222-130.090667 121.528889l-3.484444 6.115555c-31.772444 56.746667-112.184889 102.613333-168.305778 99.655111l-3.484444-0.256c-112.184889-10.197333-221.781333 48.241778-250.168889 154.225778-30.506667 113.820444 78.392889 212.992 208.128 247.751111C662.471111 993.507556 952.888889 832.64 952.888889 512l-0.028445-6.229333c-0.568889-78.307556-12.430222-134.641778-44.088888-174.179556l-1.877334-2.275555 1.422222-0.270223A106.666667 106.666667 0 0 0 914.062222 121.6z m-14.72 54.940444a49.777778 49.777778 0 1 1-25.756444 96.170667l-31.317334-8.405333-23.466666 70.414222C883.100444 362.012444 896 422.044444 896 512c0 298.666667-276.024889 411.221333-541.269333 340.138667-83.768889-22.442667-190.364444-94.307556-167.921778-178.062223 21.717333-81.066667 108.785778-118.129778 186.026667-112.64l4.053333 0.341334c76.856889 6.983111 179.271111-48.312889 224.227555-124.188445l2.346667-4.081777c32.526222-58.083556 77.226667-101.148444 132.551111-110.037334l26.823111-80.455111-26.624-7.111111a49.777778 49.777778 0 1 1 25.756445-96.170667l137.386666 36.807111z" fill="#191919" /><path d="M737.991111 462.776889a14.222222 14.222222 0 0 1 4.807111 19.527111c-61.198222 101.191111-111.132444 143.843556-202.467555 179.555556a14.222222 14.222222 0 0 1-10.353778-26.496c85.432889-33.408 130.488889-71.879111 188.472889-167.779556a14.222222 14.222222 0 0 1 18.062222-5.589333l1.464889 0.782222zM391.267556 673.706667l0.568888-0.213334a14.222222 14.222222 0 0 1 12.728889 25.429334c-5.632 2.830222-13.653333 3.982222-25.6 4.593777l-5.262222 0.241778c-5.262222 0.184889-10.652444 0.227556-18.161778 0.227556a14.222222 14.222222 0 1 1 0-28.444445l6.499556-0.028444c14.691556-0.142222 25.969778-0.810667 29.226667-1.806222zM228.864 612.807111a42.666667 42.666667 0 0 0-52.252444 30.165333l-14.72 54.954667a42.666667 42.666667 0 1 0 82.417777 22.087111l14.72-54.954666a42.666667 42.666667 0 0 0-27.761777-51.541334l-2.403556-0.711111z" fill="#191919" /></svg>