<?xml version="1.0" standalone="no"?><!DOCTYPE svg PUBLIC "-//W3C//DTD SVG 1.1//EN" "http://www.w3.org/Graphics/SVG/1.1/DTD/svg11.dtd"><svg class="icon" width="200px" height="200.00px" viewBox="0 0 1024 1024" version="1.1" xmlns="http://www.w3.org/2000/svg"><path d="M105.031111 568.106667c62.976 161.806222 220.288 276.48 404.366222 276.48 187.448889 0 347.107556-118.883556 407.722667-285.340445-33.038222-31.502222-168.078222-161.024-405.12-388.579555-246.513778 241.777778-382.179556 374.257778-406.968889 397.44z" fill="#4CAF50" /><path d="M163.968 509.226667C215.281778 651.818667 351.715556 753.777778 512 753.777778c162.688 0 300.828444-105.045333 350.293333-251.022222-34.417778-31.758222-151.182222-142.449778-350.293333-332.088889C308.152889 365.041778 192.142222 477.909333 163.968 509.226667z" fill="#E6EE9C" /><path d="M194.901333 479.729778c39.182222 136.760889 165.148444 236.856889 314.496 236.856889 152.974222 0 281.429333-105.002667 317.198223-246.869334-1.137778-0.256-105.998222-99.939556-314.595556-299.050666-203.847111 199.111111-309.546667 302.136889-317.098667 309.063111z" fill="#FF5252" /><path d="M937.386667 534.940444L535.381333 143.900444a28.444444 28.444444 0 0 0-39.665777 0L83.242667 545.152a28.444444 28.444444 0 0 0-6.741334 30.535111c67.84 177.592889 238.648889 297.344 431.928889 297.344 197.504 0 371.214222-124.999111 435.939556-308.224a28.444444 28.444444 0 0 0-6.968889-29.866667zM515.555556 203.946667L884.337778 562.702222l-0.227556 0.583111C822.798222 714.396444 675.285333 816.142222 508.444444 816.142222l-6.428444-0.056889c-158.222222-2.474667-298.382222-96.398222-362.538667-237.198222l-2.816-6.343111 378.88-368.611556z" fill="#191919" /><path d="M313.6 507.832889m14.222222 0l0 0q14.222222 0 14.222222 14.222222l0 28.444445q0 14.222222-14.222222 14.222222l0 0q-14.222222 0-14.222222-14.222222l0-28.444445q0-14.222222 14.222222-14.222222Z" fill="#191919" /><path d="M498.488889 564.721778m14.222222 0l0 0q14.222222 0 14.222222 14.222222l0 28.444444q0 14.222222-14.222222 14.222223l0 0q-14.222222 0-14.222222-14.222223l0-28.444444q0-14.222222 14.222222-14.222222Z" fill="#191919" /><path d="M669.155556 493.610667m14.222222 0l0 0q14.222222 0 14.222222 14.222222l0 28.444444q0 14.222222-14.222222 14.222223l0 0q-14.222222 0-14.222222-14.222223l0-28.444444q0-14.222222 14.222222-14.222222Z" fill="#191919" /><path d="M413.155556 408.277333m14.222222 0l0 0q14.222222 0 14.222222 14.222223l0 28.444444q0 14.222222-14.222222 14.222222l0 0q-14.222222 0-14.222222-14.222222l0-28.444444q0-14.222222 14.222222-14.222223Z" fill="#FFFFFF" /><path d="M498.488889 294.499556m14.222222 0l0 0q14.222222 0 14.222222 14.222222l0 28.444444q0 14.222222-14.222222 14.222222l0 0q-14.222222 0-14.222222-14.222222l0-28.444444q0-14.222222 14.222222-14.222222Z" fill="#FFFFFF" /><path d="M569.6 408.277333m14.222222 0l0 0q14.222222 0 14.222222 14.222223l0 28.444444q0 14.222222-14.222222 14.222222l0 0q-14.222222 0-14.222222-14.222222l0-28.444444q0-14.222222 14.222222-14.222223Z" fill="#191919" /><path d="M871.665778 515.015111a386.56 386.56 0 0 1-92.444445 147.484445c-150.357333 150.343111-392.96 151.523556-541.880889 2.602666a376.874667 376.874667 0 0 1-87.751111-137.272889l27.704889-10.382222a347.761778 347.761778 0 0 0 80.995556 126.705778c137.457778 137.457778 361.386667 136.376889 500.195555-2.417778a356.693333 356.693333 0 0 0 85.319111-136.106667l27.861334 9.386667z" fill="#191919" /></svg>